<svg xmlns="http://www.w3.org/2000/svg" width="312" height="50" viewBox="0 0 312 50"><defs><style>.a{fill:#cd7925;}.b{fill:#fff;font-size:39px;font-family:FuturaPT-ExtraBold, Futura PT;font-weight:800;}</style></defs><g transform="translate(-30 -20)"><g transform="translate(12.194 22.4)"><path class="a" d="M392.061,14.05l2.6-4.644-1.619-.917-2.6,4.644Zm-2.292,13.414-1.619-.917-2.444,4.339,1.619.917Zm-6.447-1.681,1.619.917,2.6-4.644-1.619-.917ZM394.78,14.722l-2.444,4.339,1.619.917,2.444-4.339Zm-5.775,10.266,1.619.917,2.444-4.339-1.619-.917Zm-2.567,8.4-1.619-.917-1.039,1.864-1.619-2.658,1.864-3.3-1.619-.917-1.344,2.383-1.619-2.658L392.152,4.517,390.533,3.6,383.2,16.647a9.107,9.107,0,0,0-.917-.061h-.092a6.4,6.4,0,0,0-2.719.611l-.275.153a4.412,4.412,0,0,1-1.894.367h-.092a4.564,4.564,0,0,1-1.8-.367l-.244-.153a5.931,5.931,0,0,0-2.842-.642h-.092a5.712,5.712,0,0,0-2.719.642l-.214.153a4.424,4.424,0,0,1-1.894.367h-.092a4.1,4.1,0,0,1-1.8-.367l-.153-.122L365.3,17.2a5.765,5.765,0,0,0-2.75-.642h-.092a5.552,5.552,0,0,0-2.842.642l.947,1.619a4.412,4.412,0,0,1,1.894-.367h.061a4.1,4.1,0,0,1,1.8.367l.153.122.061.031a5.765,5.765,0,0,0,2.75.642h.092a5.552,5.552,0,0,0,2.842-.642l.214-.153a4.1,4.1,0,0,1,1.8-.367h.061a4.506,4.506,0,0,1,1.894.367l.244.153a5.712,5.712,0,0,0,2.719.642h.122A5.8,5.8,0,0,0,380.083,19l.275-.153a4.049,4.049,0,0,1,1.8-.367l-1.833,3.239a6.679,6.679,0,0,0-2.261-.428h-.183a6.4,6.4,0,0,0-2.719.611l-.275.153a4.412,4.412,0,0,1-1.894.367H372.9a4.564,4.564,0,0,1-1.8-.367l-.244-.153a5.931,5.931,0,0,0-2.842-.642h-.092a5.712,5.712,0,0,0-2.719.642l-.214.153a4.422,4.422,0,0,1-1.894.367H363a4.1,4.1,0,0,1-1.8-.367l-.153-.122-.061-.031a5.766,5.766,0,0,0-2.75-.642h-.092a5.552,5.552,0,0,0-2.842.642l.947,1.619a4.412,4.412,0,0,1,1.894-.367h.061a4.1,4.1,0,0,1,1.8.367l.153.122.061.031a5.765,5.765,0,0,0,2.75.642h.092a5.552,5.552,0,0,0,2.842-.642l.214-.153a4.1,4.1,0,0,1,1.8-.367h.092a4.351,4.351,0,0,1,1.894.367l.244.153a5.712,5.712,0,0,0,2.719.642h.122a5.8,5.8,0,0,0,2.811-.611l.275-.153a4.114,4.114,0,0,1,1.833-.367h.061a5.091,5.091,0,0,1,1.436.214l-1.681,2.964H352.4v1.864h14.666l12.1,19.8,1.589-.978L369.267,28.2h3.239l13.016,21.45,1.589-.978L374.675,28.2h3.178l13.23,21.694,1.589-.978L384.88,36.141Zm3.025-18.547-2.6,4.644,1.619.917,2.6-4.644Z" transform="translate(-334.594 -6)"/></g><text class="b" transform="translate(86 58)"><tspan x="0" y="0">ABC Products</tspan></text></g></svg>