<svg xmlns="http://www.w3.org/2000/svg" width="234.822" height="49.5" viewBox="0 0 234.822 49.5"><defs><style>.a{fill:#fff;}</style></defs><g transform="translate(-34 -330)"><g transform="translate(34 330)"><g transform="translate(0 0)"><g transform="translate(53.755 8.597)"><path class="a" d="M76.54,28.3a5.288,5.288,0,0,0-1.3-3.734,4.931,4.931,0,0,0-3.647-1.3,7.088,7.088,0,0,0-5.037,2V41.847a1.476,1.476,0,0,1-2.953,0V13.276a1.476,1.476,0,0,1,2.953,0v8.6a11.8,11.8,0,0,1,2.432-.955,8.964,8.964,0,0,1,2.605-.347,8.269,8.269,0,0,1,3.3.608,8.442,8.442,0,0,1,2.518,1.65,8.442,8.442,0,0,1,1.65,2.518,9.708,9.708,0,0,1,.608,3.3V41.934a1.476,1.476,0,0,1-2.953,0V28.3Z" transform="translate(-63.6 -11.713)"/><path class="a" d="M90,23.276a1.476,1.476,0,0,1,2.953,0v19.8a1.476,1.476,0,0,1-2.953,0Z" transform="translate(-67.074 -13.029)"/><path class="a" d="M114.413,43.05a8.83,8.83,0,0,1-2.432,1.129,8.964,8.964,0,0,1-2.605.347,8.269,8.269,0,0,1-3.3-.608,7.381,7.381,0,0,1-4.168-4.168,9.708,9.708,0,0,1-.608-3.3V29.676a8.269,8.269,0,0,1,.608-3.3,7.054,7.054,0,0,1,1.65-2.518,8.442,8.442,0,0,1,2.518-1.65,7.991,7.991,0,0,1,3.3-.608,22.243,22.243,0,0,1,3.387.261,13.521,13.521,0,0,1,3.213.868,2.371,2.371,0,0,1,1.042.782,2.075,2.075,0,0,1,.434,1.216v21.1a8.269,8.269,0,0,1-.608,3.3,7.054,7.054,0,0,1-1.65,2.518,8.442,8.442,0,0,1-2.518,1.65,9.708,9.708,0,0,1-3.3.608,12.785,12.785,0,0,1-3.126-.347A16.756,16.756,0,0,1,103.3,52.6a1.3,1.3,0,0,1-.868-1.3,1.483,1.483,0,0,1,1.476-1.476,2.209,2.209,0,0,1,.608.174,20.037,20.037,0,0,0,2.432.868,8.4,8.4,0,0,0,2.518.347,4.706,4.706,0,0,0,3.647-1.476,5.512,5.512,0,0,0,1.3-3.821V43.05Zm0-17.716a16.359,16.359,0,0,0-4.95-.782,5.288,5.288,0,0,0-3.734,1.3,5.009,5.009,0,0,0-1.3,3.734V36.8a5.288,5.288,0,0,0,1.3,3.734,5.009,5.009,0,0,0,3.734,1.3,7.077,7.077,0,0,0,2.692-.521,5.679,5.679,0,0,0,2.258-1.476Z" transform="translate(-68.56 -13.003)"/><path class="a" d="M140.34,28.3a5.288,5.288,0,0,0-1.3-3.734,4.931,4.931,0,0,0-3.647-1.3,7.088,7.088,0,0,0-5.037,2V41.847a1.476,1.476,0,0,1-2.953,0V13.276a1.476,1.476,0,0,1,2.953,0v8.6a11.8,11.8,0,0,1,2.432-.955,8.964,8.964,0,0,1,2.605-.347,8.269,8.269,0,0,1,3.3.608,8.442,8.442,0,0,1,2.518,1.65,8.443,8.443,0,0,1,1.65,2.518,9.708,9.708,0,0,1,.608,3.3V41.934a1.476,1.476,0,0,1-2.953,0V28.3Z" transform="translate(-71.995 -11.713)"/><path class="a" d="M153.3,27.892a7.13,7.13,0,0,1,.434-2.432,5.52,5.52,0,0,1,1.216-1.911,5.173,5.173,0,0,1,1.824-1.216,6.523,6.523,0,0,1,2.258-.434,13.77,13.77,0,0,1,3.126.347,1.8,1.8,0,0,1,.868.521,1.306,1.306,0,0,1,.347.955A1.483,1.483,0,0,1,161.9,25.2a.522.522,0,0,1-.347-.087,3.762,3.762,0,0,0-.434-.087c-.347-.087-.695-.087-1.042-.174a4.228,4.228,0,0,0-1.042-.087,2.553,2.553,0,0,0-1.911.782,3.1,3.1,0,0,0-.782,2.258V43.176a1.476,1.476,0,0,1-2.953,0V27.892Z" transform="translate(-75.402 -13.042)"/><path class="a" d="M183.666,41.6a2.075,2.075,0,0,1-.434,1.216,2.371,2.371,0,0,1-1.042.782,19.291,19.291,0,0,1-3.213.782,21.417,21.417,0,0,1-3.387.261c-2.692,0-4.689-.608-6.079-1.911a6.1,6.1,0,0,1-1.911-4.863A6.348,6.348,0,0,1,169.511,33a5.8,5.8,0,0,1,2.518-1.3,14.26,14.26,0,0,1,3.561-.434h4.95V28.487a3.527,3.527,0,0,0-1.3-2.953,5.226,5.226,0,0,0-3.387-.955,8.03,8.03,0,0,0-2.518.347,12.563,12.563,0,0,0-2.518,1.129,1.155,1.155,0,0,1-.695.261,1.384,1.384,0,0,1-1.042-.347,1.438,1.438,0,0,1-.434-1.042,1.531,1.531,0,0,1,.782-1.3,11.627,11.627,0,0,1,3.213-1.389,14.345,14.345,0,0,1,3.3-.434,9.916,9.916,0,0,1,2.866.434,7.106,7.106,0,0,1,2.432,1.216,5.683,5.683,0,0,1,1.65,2.084,6.292,6.292,0,0,1,.608,2.866V41.6Zm-3.039-7.555h-4.95a7.789,7.789,0,0,0-2.692.347,3.436,3.436,0,0,0-1.563.955,2.476,2.476,0,0,0-.695,1.216,6.7,6.7,0,0,0-.174,1.3,8.662,8.662,0,0,0,.174,1.389,3.192,3.192,0,0,0,.695,1.3,3.435,3.435,0,0,0,1.563.955,7.789,7.789,0,0,0,2.692.347,15.947,15.947,0,0,0,4.95-.782Z" transform="translate(-77.284 -13.029)"/><path class="a" d="M201.476,43.311a8.269,8.269,0,0,1-3.3-.608,7.381,7.381,0,0,1-4.168-4.168,9.708,9.708,0,0,1-.608-3.3V28.461a7.477,7.477,0,0,1,7.99-7.99,8.964,8.964,0,0,1,2.605.347,11.8,11.8,0,0,1,2.432.955v-8.6a1.476,1.476,0,0,1,2.953,0V40.184a2.075,2.075,0,0,1-.434,1.216,2.371,2.371,0,0,1-1.042.782,19.29,19.29,0,0,1-3.213.782A11.741,11.741,0,0,1,201.476,43.311Zm-4.95-7.816a5.288,5.288,0,0,0,1.3,3.734,4.931,4.931,0,0,0,3.647,1.3,16.494,16.494,0,0,0,5.037-.782V24.987a6.464,6.464,0,0,0-2.345-1.389,9.2,9.2,0,0,0-2.692-.434,4.931,4.931,0,0,0-3.647,1.3,5.009,5.009,0,0,0-1.3,3.734Z" transform="translate(-80.679 -11.7)"/><path class="a" d="M202.764,22.079a1.476,1.476,0,0,1,2.953,0v19.8a1.476,1.476,0,0,1-2.953,0ZM91.345,17.389a2.373,2.373,0,0,1-1.65-.695A2.224,2.224,0,0,1,89,15.045a2.541,2.541,0,0,1,.695-1.65,2.224,2.224,0,0,1,1.65-.695,2.541,2.541,0,0,1,1.65.695,2.224,2.224,0,0,1,.695,1.65,2.373,2.373,0,0,1-.695,1.65A2.224,2.224,0,0,1,91.345,17.389Z" transform="translate(-66.942 -11.832)"/><path class="a" d="M244.44,23.276a1.476,1.476,0,0,1,2.953,0V41.6a1.994,1.994,0,0,1-.347,1.216,2.715,2.715,0,0,1-.955.782,21.629,21.629,0,0,1-3.213.782,22.243,22.243,0,0,1-3.387.261,7.536,7.536,0,0,1-5.818-2.171A8.148,8.148,0,0,1,231.5,36.65V23.276a1.476,1.476,0,0,1,2.953,0V36.824a5.288,5.288,0,0,0,1.3,3.734,5.009,5.009,0,0,0,3.734,1.3,15.947,15.947,0,0,0,4.95-.782Z" transform="translate(-85.692 -13.029)"/><path class="a" d="M260.121,33.35a8.45,8.45,0,0,1-2.692-1.911,5.248,5.248,0,0,1-1.129-3.647,4.6,4.6,0,0,1,.608-2.432,5.43,5.43,0,0,1,1.563-1.911,6.272,6.272,0,0,1,2.258-1.216,9.2,9.2,0,0,1,2.692-.434,9.6,9.6,0,0,1,2.866.347,11.364,11.364,0,0,1,2.432.782,1.488,1.488,0,0,1,.955,1.389,1.244,1.244,0,0,1-.434.955,1.384,1.384,0,0,1-1.042.347,2.209,2.209,0,0,1-.608-.174,11.065,11.065,0,0,0-4.516-.955,6.7,6.7,0,0,0-1.3.174,3.045,3.045,0,0,0-1.216.521,2.311,2.311,0,0,0-.868.955,2.548,2.548,0,0,0-.347,1.389,2.778,2.778,0,0,0,.695,2,7.686,7.686,0,0,0,1.476,1.042l4.082,1.65a8.608,8.608,0,0,1,3.213,2.258,5.7,5.7,0,0,1,1.216,3.561,6.23,6.23,0,0,1-.521,2.518,7.007,7.007,0,0,1-1.476,2.084,6.6,6.6,0,0,1-2.258,1.389,7.522,7.522,0,0,1-2.779.521,11.9,11.9,0,0,1-3.126-.347,14.15,14.15,0,0,1-2.692-.955,1.34,1.34,0,0,1-.868-1.389,1.483,1.483,0,0,1,1.476-1.476.522.522,0,0,1,.347.087c.087,0,.174.087.347.174a11.716,11.716,0,0,0,4.6,1.129,4.173,4.173,0,0,0,2.692-.868,2.883,2.883,0,0,0,1.216-2.345,3.25,3.25,0,0,0-.695-2.171A5.781,5.781,0,0,0,264.2,35Z" transform="translate(-88.955 -13.029)"/><path class="a" d="M221.145,17.389a2.373,2.373,0,0,1-1.65-.695,2.224,2.224,0,0,1-.695-1.65,2.541,2.541,0,0,1,.695-1.65,2.224,2.224,0,0,1,1.65-.695,2.54,2.54,0,0,1,1.65.695,2.223,2.223,0,0,1,.695,1.65,2.373,2.373,0,0,1-2.345,2.345Z" transform="translate(-84.021 -11.832)"/></g><g transform="translate(0 0)"><g transform="translate(0 13.721)"><path class="a" d="M40.121,49.437A22.662,22.662,0,0,1,26.4,44.313,26,26,0,0,0,43.682,31.2a23.417,23.417,0,0,1,1.824,9.118,29.6,29.6,0,0,1-.434,4.776l-.434,2.345a14.8,14.8,0,0,1-2.605,2Z" transform="translate(-4.95 -19.389)"/><path class="a" d="M24.887,51.729a21.7,21.7,0,0,1-5.732-.782A23.306,23.306,0,0,1,1.7,31.668a11.816,11.816,0,0,0,.608-1.563,5.022,5.022,0,0,1,.434-1.216A20.573,20.573,0,0,1,14.032,17.6a21.3,21.3,0,0,0-2,9.292c0,11.724,8.771,21.276,20.842,23.447A22.76,22.76,0,0,1,24.887,51.729Z" transform="translate(-1.7 -17.6)"/></g><path class="a" d="M2.4,20.645a23.194,23.194,0,0,1,14.676-9.553,19.44,19.44,0,0,1,4.516-.434A23.639,23.639,0,0,1,41.826,22.382,27.368,27.368,0,0,1,45.561,36.1v1.824a25.339,25.339,0,0,0,3.734-12.505A24.023,24.023,0,0,0,25.5,1.8,23.673,23.673,0,0,0,5.7,12.395S2.834,16.824,2.4,20.645Z" transform="translate(-1.792 -1.8)"/></g></g></g></g></svg>