<svg xmlns="http://www.w3.org/2000/svg" width="11" height="5" viewBox="0 0 11 5"><defs><style>.a{fill:none;}.b,.c{stroke:none;}.c{fill:#969fa7;}</style></defs><g class="a" transform="translate(11 5) rotate(180)"><path class="b" d="M4.827.612a1,1,0,0,1,1.345,0L9.086,3.26A1,1,0,0,1,8.413,5H2.587a1,1,0,0,1-.673-1.74Z"/><path class="c" d="M 5.499999523162842 1.351457118988037 L 2.586609840393066 3.999987125396729 C 2.586606979370117 3.999989986419678 2.586604118347168 3.999992370605469 2.586601257324219 3.999994993209839 C 2.586601257324219 3.999995708465576 2.586601257324219 3.999996423721313 2.586602210998535 3.999997138977051 C 2.586604118347168 3.999997138977051 2.586606979370117 3.999997138977051 2.586609840393066 3.999997138977051 L 8.413389205932617 3.999997138977051 C 8.413392066955566 3.999997138977051 8.413394927978516 3.999997138977051 8.413396835327148 3.999997138977051 C 8.413397789001465 3.999996423721313 8.413397789001465 3.999996185302734 8.413399696350098 3.999997138977051 L 5.500689506530762 1.351517200469971 C 5.500619411468506 1.351497173309326 5.500359535217285 1.351457118988037 5.499999523162842 1.351457118988037 M 5.499999523162842 0.3514623641967773 C 5.740979671478271 0.3514623641967773 5.981959342956543 0.4381470680236816 6.172669410705566 0.6115169525146484 L 9.086069107055664 3.260057210922241 C 9.762389183044434 3.87490701675415 9.32742977142334 4.999997138977051 8.413389205932617 4.999997138977051 L 2.586609840393066 4.999997138977051 C 1.672569274902344 4.999997138977051 1.23760986328125 3.87490701675415 1.91392993927002 3.260057210922241 L 4.827329635620117 0.6115169525146484 C 5.018039703369141 0.4381470680236816 5.259019374847412 0.3514623641967773 5.499999523162842 0.3514623641967773 Z"/></g></svg>